<?xml version="1.0" encoding="UTF-8" standalone="no" ?>
<!DOCTYPE svg PUBLIC "-//W3C//DTD SVG 1.1//EN" "http://www.w3.org/Graphics/SVG/1.1/DTD/svg11.dtd">
<svg xmlns="http://www.w3.org/2000/svg" xmlns:xlink="http://www.w3.org/1999/xlink" version="1.1" width="452.875" height="140.72" xml:space="preserve">
<desc>Created with Fabric.js 1.6.0-rc.1</desc>
<defs></defs>
<g style="stroke: none; stroke-width: 1; stroke-dasharray: none; stroke-linecap: butt; stroke-linejoin: miter; stroke-miterlimit: 10; fill: none; fill-rule: nonzero; opacity: 1;" transform="translate(10 10) scale(0.25 0.25)" >
  <ellipse cx="244.634" cy="240.952" rx="222.404" ry="225.882" style="stroke: none; stroke-width: 1; stroke-dasharray: none; stroke-linecap: butt; stroke-linejoin: miter; stroke-miterlimit: 10; fill: #1565c0; fill-rule: nonzero; opacity: 1;" transform=" matrix(1 0 0 1 0 0) "/>
  <path d="M 244.646 15.066 c -122.827 0 -222.404 101.135 -222.404 225.882 c 0 60.687 23.605 115.735 61.944 156.318 l 316.86 -316.868 C 360.877 40.019 305.641 15.066 244.646 15.066 z" style="stroke: none; stroke-width: 1; stroke-dasharray: none; stroke-linecap: butt; stroke-linejoin: miter; stroke-miterlimit: 10; fill: #1E88E5; fill-rule: nonzero; opacity: 1;" transform=" matrix(1 0 0 1 0 0) " stroke-linecap="round" />
  <ellipse cx="333.62300000000005" cy="304.949" rx="14.833" ry="15.059" style="stroke: none; stroke-width: 1; stroke-dasharray: none; stroke-linecap: butt; stroke-linejoin: miter; stroke-miterlimit: 10; fill: #90caf5; fill-rule: nonzero; opacity: 1;" transform=" matrix(1 0 0 1 0 0) "/>
  <ellipse cx="155.685" cy="128.00900000000001" rx="14.825" ry="15.059" style="stroke: none; stroke-width: 1; stroke-dasharray: none; stroke-linecap: butt; stroke-linejoin: miter; stroke-miterlimit: 10; fill: #BBDEFB; fill-rule: nonzero; opacity: 1;" transform=" matrix(1 0 0 1 0 0) "/>
  <ellipse cx="363.293" cy="406.589" rx="14.833" ry="15.059" style="stroke: none; stroke-width: 1; stroke-dasharray: none; stroke-linecap: butt; stroke-linejoin: miter; stroke-miterlimit: 10; fill: #90caf5; fill-rule: nonzero; opacity: 1;" transform=" matrix(1 0 0 1 0 0) "/>
  <path d="M 244.646 236.8 L 411.505 69.941 C 368.61 26.775 309.685 0.008 244.646 0.008 V 236.8 z" style="stroke: none; stroke-width: 1; stroke-dasharray: none; stroke-linecap: butt; stroke-linejoin: miter; stroke-miterlimit: 10; fill: #90caf5; fill-rule: nonzero; opacity: 1;" transform=" matrix(1 0 0 1 0 0) " stroke-linecap="round" />
  <ellipse cx="322.48600000000005" cy="86.593" rx="25.946" ry="26.353" style="stroke: none; stroke-width: 1; stroke-dasharray: none; stroke-linecap: butt; stroke-linejoin: miter; stroke-miterlimit: 10; fill: #E3F2FD; fill-rule: nonzero; opacity: 1;" transform=" matrix(1 0 0 1 0 0) "/>
  <ellipse cx="81.545" cy="286.119" rx="14.825" ry="15.059" style="stroke: none; stroke-width: 1; stroke-dasharray: none; stroke-linecap: butt; stroke-linejoin: miter; stroke-miterlimit: 10; fill: #BBDEFB; fill-rule: nonzero; opacity: 1;" transform=" matrix(1 0 0 1 0 0) "/>
  <path d="M 466.854 233.419 h -44.461 c -3.855 -94.871 -80.045 -171.046 -173.922 -173.079 V 15.157 c -1.272 -0.015 -2.537 -0.09 -3.825 -0.09 c -3.689 0 -7.364 0.105 -11.008 0.286 v 45.274 c -90.541 5.647 -162.982 80.354 -166.731 172.792 H 22.423 c -0.083 2.507 -0.181 5.007 -0.181 7.529 c 0 2.522 0.105 5.022 0.181 7.529 h 44.484 c 3.75 92.439 76.183 167.16 166.731 172.808 v 45.274 c 3.644 0.181 7.319 0.286 11.008 0.286 c 1.288 0 2.552 -0.075 3.825 -0.105 v -45.176 c 93.877 -2.033 170.067 -78.216 173.922 -173.086 h 44.499 c 0.075 -2.5 0.166 -5.007 0.158 -7.529 C 467.049 238.426 466.936 235.927 466.854 233.419 z M 233.638 406.182 c -82.364 -5.602 -148.179 -73.562 -151.898 -157.688 h 44.664 c 3.629 59.189 49.423 106.94 107.234 112.376 V 406.182 z M 233.638 345.751 c -49.641 -5.338 -88.84 -46.366 -92.401 -97.28 h 44.619 c 3.215 25.969 22.724 46.833 47.789 51.622 L 233.638 345.751 L 233.638 345.751 z M 233.638 284.672 c -16.866 -4.382 -29.877 -18.545 -32.798 -36.201 h 32.798 V 284.672 z M 233.638 233.419 H 200.84 c 2.929 -17.641 15.932 -31.812 32.798 -36.186 V 233.419 z M 233.638 181.798 c -25.065 4.804 -44.574 25.66 -47.789 51.622 h -44.619 c 3.569 -50.899 42.767 -91.934 92.401 -97.265 L 233.638 181.798 L 233.638 181.798 z M 233.638 121.05 c -57.811 5.436 -103.605 53.18 -107.234 112.376 H 81.739 c 3.72 -84.134 69.527 -152.087 151.898 -157.696 V 121.05 z M 248.471 135.74 c 52.969 1.973 95.842 44.363 99.599 97.687 H 303.45 c -3.516 -28.393 -26.526 -50.658 -54.98 -52.51 L 248.471 135.74 L 248.471 135.74 z M 248.471 195.976 c 20.254 1.762 36.653 17.363 39.996 37.451 h -39.996 V 195.976 z M 248.471 248.471 h 39.996 c -3.328 20.088 -19.72 35.689 -39.996 37.459 V 248.471 z M 248.471 300.988 c 28.439 -1.852 51.464 -24.109 54.98 -52.518 h 44.619 c -3.735 53.323 -46.615 95.721 -99.599 97.694 L 248.471 300.988 L 248.471 300.988 z M 248.471 406.505 v -45.282 c 61.139 -2.003 110.637 -51.11 114.417 -112.753 h 44.672 C 403.727 335.044 334.17 404.48 248.471 406.505 z M 362.888 233.419 c -3.78 -61.621 -53.278 -110.75 -114.417 -112.738 V 75.407 c 85.7 2.018 155.256 71.454 159.089 158.02 L 362.888 233.419 L 362.888 233.419 z" style="stroke: none; stroke-width: 1; stroke-dasharray: none; stroke-linecap: butt; stroke-linejoin: miter; stroke-miterlimit: 10; fill: #42A5F5; fill-rule: nonzero; opacity: 1;" transform=" matrix(1 0 0 1 0 0) " stroke-linecap="round" />
  <path d="M 115.991 365.455 l 10.549 -10.549 c -26.225 -28.024 -42.978 -65.25 -44.8 -106.436 h 44.664 c 1.762 28.823 13.591 54.882 31.857 74.714 l 10.534 -10.541 c -15.646 -17.107 -25.841 -39.447 -27.565 -64.166 h 44.619 c 1.536 12.408 6.859 23.582 14.667 32.459 l 10.556 -10.556 c -5.188 -6.114 -8.87 -13.591 -10.24 -21.896 h 32.128 l 15.511 -15.503 v -37.007 c 9.848 0.851 18.718 5.022 25.683 11.324 l 10.571 -10.586 c -9.675 -9.05 -22.31 -14.893 -36.254 -15.797 V 135.74 c 26.33 0.979 50.161 11.964 67.93 29.304 l 10.556 -10.556 c -20.48 -20.111 -48.038 -32.806 -78.502 -33.807 V 75.407 c 42.85 1.016 81.679 18.876 110.268 47.322 l 10.541 -10.564 c -31.262 -31.209 -73.826 -50.808 -120.809 -51.817 V 15.157 c -1.265 -0.015 -2.53 -0.09 -3.817 -0.09 c -3.689 0 -7.364 0.105 -11.008 0.286 v 45.274 c -90.541 5.647 -162.982 80.354 -166.731 172.792 H 22.415 c -0.083 2.507 -0.181 5.007 -0.181 7.529 c 0 2.522 0.105 5.022 0.181 7.529 h 44.484 C 68.751 293.76 87.138 334.72 115.991 365.455 z M 233.638 233.419 H 200.84 c 2.929 -17.641 15.932 -31.812 32.798 -36.186 V 233.419 z M 233.638 181.798 c -25.065 4.804 -44.574 25.66 -47.789 51.622 h -44.619 c 3.569 -50.899 42.767 -91.934 92.401 -97.265 L 233.638 181.798 L 233.638 181.798 z M 233.638 75.723 v 45.327 c -57.811 5.436 -103.605 53.18 -107.234 112.376 H 81.739 C 85.459 149.286 151.273 81.333 233.638 75.723 z" style="stroke: none; stroke-width: 1; stroke-dasharray: none; stroke-linecap: butt; stroke-linejoin: miter; stroke-miterlimit: 10; fill: #64b4f6; fill-rule: nonzero; opacity: 1;" transform=" matrix(1 0 0 1 0 0) " stroke-linecap="round" />
  <path d="M 244.646 481.882 C 113.83 481.882 0 373.805 0 240.941 S 113.83 0 244.646 0 s 237.237 108.077 237.237 240.941 C 481.882 373.805 375.462 481.882 244.646 481.882 z M 244.646 15.066 c -122.639 0 -222.404 101.331 -222.404 225.882 s 99.765 225.882 222.404 225.882 s 222.682 -101.323 222.404 -225.882 C 466.771 116.134 367.096 14.886 244.646 15.066 z" style="stroke: none; stroke-width: 1; stroke-dasharray: none; stroke-linecap: butt; stroke-linejoin: miter; stroke-miterlimit: 10; fill: #FFFFFF; fill-rule: nonzero; opacity: 1;" transform=" matrix(1 0 0 1 0 0) " stroke-linecap="round" />
</g>
  <g transform="translate(289.94 55.72)">
   <text font-family="Open Sans" font-size="40" font-weight="normal" style="stroke: none; stroke-width: 1; stroke-dasharray: none; stroke-linecap: butt; stroke-linejoin: miter; stroke-miterlimit: 10; fill: #1565c0; fill-rule: nonzero; opacity: 1;" ><tspan x="-153.44" y="8.98" style="stroke: none; stroke-width: 0; stroke-dasharray: none; stroke-linecap: butt; stroke-linejoin: miter; stroke-miterlimit: 4; fill: #1565c0; fill-rule: ; opacity: 1;">W</tspan><tspan x="-116.41" y="8.98" style="stroke: none; stroke-width: 0; stroke-dasharray: none; stroke-linecap: butt; stroke-linejoin: miter; stroke-miterlimit: 4; fill: #1565c0; fill-rule: ; opacity: 1;">A</tspan><tspan x="-91.09" y="8.98" style="stroke: none; stroke-width: 0; stroke-dasharray: none; stroke-linecap: butt; stroke-linejoin: miter; stroke-miterlimit: 4; fill: #1565c0; fill-rule: ; opacity: 1;">M</tspan><tspan x="-54.98" y="8.98" style="stroke: none; stroke-width: 0; stroke-dasharray: none; stroke-linecap: butt; stroke-linejoin: miter; stroke-miterlimit: 4; fill: #1565c0; fill-rule: ; opacity: 1;">S</tspan><tspan x="-33.03" y="8.98" style="stroke: none; stroke-width: 0; stroke-dasharray: none; stroke-linecap: butt; stroke-linejoin: miter; stroke-miterlimit: 4; fill: #1565c0; fill-rule: ; opacity: 1;">W</tspan><tspan x="4" y="8.98" style="stroke: none; stroke-width: 0; stroke-dasharray: none; stroke-linecap: butt; stroke-linejoin: miter; stroke-miterlimit: 4; fill: #1565c0; fill-rule: ; opacity: 1;">A</tspan><tspan x="29.32" y="8.98" style="stroke: none; stroke-width: 0; stroke-dasharray: none; stroke-linecap: butt; stroke-linejoin: miter; stroke-miterlimit: 4; fill: #1565c0; fill-rule: ; opacity: 1;">R</tspan><tspan x="54.04" y="8.98" style="stroke: none; stroke-width: 0; stroke-dasharray: none; stroke-linecap: butt; stroke-linejoin: miter; stroke-miterlimit: 4; fill: #1565c0; fill-rule: ; opacity: 1;">E</tspan><tspan x="76.29" y="8.98" style="stroke: none; stroke-width: 0; stroke-dasharray: none; stroke-linecap: butt; stroke-linejoin: miter; stroke-miterlimit: 4; fill: #1565c0; fill-rule: ; opacity: 1;"> </tspan><tspan x="86.68" y="8.98" style="stroke: none; stroke-width: 0; stroke-dasharray: none; stroke-linecap: butt; stroke-linejoin: miter; stroke-miterlimit: 4; fill: #1565c0; fill-rule: ; opacity: 1;">L</tspan><tspan x="107.44" y="8.98" style="stroke: none; stroke-width: 0; stroke-dasharray: none; stroke-linecap: butt; stroke-linejoin: miter; stroke-miterlimit: 4; fill: #1565c0; fill-rule: ; opacity: 1;">L</tspan><tspan x="128.2" y="8.98" style="stroke: none; stroke-width: 0; stroke-dasharray: none; stroke-linecap: butt; stroke-linejoin: miter; stroke-miterlimit: 4; fill: #1565c0; fill-rule: ; opacity: 1;">C</tspan></text>
 </g>
  <g transform="translate(244.8 87.09) scale(0.49 0.49)">
   <text font-family="Ikaros" font-size="40" font-weight="normal" style="stroke: none; stroke-width: 1; stroke-dasharray: none; stroke-linecap: butt; stroke-linejoin: miter; stroke-miterlimit: 10; fill: #64b4f6; fill-rule: nonzero; opacity: 1;" ><tspan x="-203.18" y="8.98" style="stroke: none; stroke-width: 0; stroke-dasharray: none; stroke-linecap: butt; stroke-linejoin: miter; stroke-miterlimit: 4; fill: #64b4f6; fill-rule: ; opacity: 1;">S</tspan><tspan x="-181.18" y="8.98" style="stroke: none; stroke-width: 0; stroke-dasharray: none; stroke-linecap: butt; stroke-linejoin: miter; stroke-miterlimit: 4; fill: #64b4f6; fill-rule: ; opacity: 1;">O</tspan><tspan x="-150.78" y="8.98" style="stroke: none; stroke-width: 0; stroke-dasharray: none; stroke-linecap: butt; stroke-linejoin: miter; stroke-miterlimit: 4; fill: #64b4f6; fill-rule: ; opacity: 1;">F</tspan><tspan x="-130.14" y="8.98" style="stroke: none; stroke-width: 0; stroke-dasharray: none; stroke-linecap: butt; stroke-linejoin: miter; stroke-miterlimit: 4; fill: #64b4f6; fill-rule: ; opacity: 1;">T</tspan><tspan x="-104.18" y="8.98" style="stroke: none; stroke-width: 0; stroke-dasharray: none; stroke-linecap: butt; stroke-linejoin: miter; stroke-miterlimit: 4; fill: #64b4f6; fill-rule: ; opacity: 1;">W</tspan><tspan x="-62.22" y="8.98" style="stroke: none; stroke-width: 0; stroke-dasharray: none; stroke-linecap: butt; stroke-linejoin: miter; stroke-miterlimit: 4; fill: #64b4f6; fill-rule: ; opacity: 1;">A</tspan><tspan x="-34.38" y="8.98" style="stroke: none; stroke-width: 0; stroke-dasharray: none; stroke-linecap: butt; stroke-linejoin: miter; stroke-miterlimit: 4; fill: #64b4f6; fill-rule: ; opacity: 1;">R</tspan><tspan x="-11.86" y="8.98" style="stroke: none; stroke-width: 0; stroke-dasharray: none; stroke-linecap: butt; stroke-linejoin: miter; stroke-miterlimit: 4; fill: #64b4f6; fill-rule: ; opacity: 1;">E</tspan><tspan x="8.94" y="8.98" style="stroke: none; stroke-width: 0; stroke-dasharray: none; stroke-linecap: butt; stroke-linejoin: miter; stroke-miterlimit: 4; fill: #64b4f6; fill-rule: ; opacity: 1;"> </tspan><tspan x="28.94" y="8.98" style="stroke: none; stroke-width: 0; stroke-dasharray: none; stroke-linecap: butt; stroke-linejoin: miter; stroke-miterlimit: 4; fill: #64b4f6; fill-rule: ; opacity: 1;">F</tspan><tspan x="49.58" y="8.98" style="stroke: none; stroke-width: 0; stroke-dasharray: none; stroke-linecap: butt; stroke-linejoin: miter; stroke-miterlimit: 4; fill: #64b4f6; fill-rule: ; opacity: 1;">O</tspan><tspan x="79.98" y="8.98" style="stroke: none; stroke-width: 0; stroke-dasharray: none; stroke-linecap: butt; stroke-linejoin: miter; stroke-miterlimit: 4; fill: #64b4f6; fill-rule: ; opacity: 1;">R</tspan><tspan x="102.5" y="8.98" style="stroke: none; stroke-width: 0; stroke-dasharray: none; stroke-linecap: butt; stroke-linejoin: miter; stroke-miterlimit: 4; fill: #64b4f6; fill-rule: ; opacity: 1;"> </tspan><tspan x="122.5" y="8.98" style="stroke: none; stroke-width: 0; stroke-dasharray: none; stroke-linecap: butt; stroke-linejoin: miter; stroke-miterlimit: 4; fill: #64b4f6; fill-rule: ; opacity: 1;">Y</tspan><tspan x="148.46" y="8.98" style="stroke: none; stroke-width: 0; stroke-dasharray: none; stroke-linecap: butt; stroke-linejoin: miter; stroke-miterlimit: 4; fill: #64b4f6; fill-rule: ; opacity: 1;">O</tspan><tspan x="178.86" y="8.98" style="stroke: none; stroke-width: 0; stroke-dasharray: none; stroke-linecap: butt; stroke-linejoin: miter; stroke-miterlimit: 4; fill: #64b4f6; fill-rule: ; opacity: 1;">U</tspan></text>
 </g>
</svg>